<?xml version="1.0" standalone="no"?>
<!DOCTYPE svg PUBLIC "-//W3C//DTD SVG 20010904//EN"
 "http://www.w3.org/TR/2001/REC-SVG-20010904/DTD/svg10.dtd">
<svg version="1.0" xmlns="http://www.w3.org/2000/svg"
 width="700.000000pt" height="700.000000pt" viewBox="0 0 700.000000 700.000000"
 preserveAspectRatio="xMidYMid meet">
<metadata>
Created by potrace 1.11, written by Peter Selinger 2001-2013
</metadata>
<g transform="translate(0.000000,700.000000) scale(0.100000,-0.100000)"
fill="#000000" stroke="none">
<path d="M3290 6954 c-298 -22 -637 -88 -895 -177 -62 -21 -68 -25 -50 -35
346 -202 578 -370 891 -645 142 -124 507 -491 675 -677 652 -721 1309 -1699
1750 -2605 205 -423 334 -738 471 -1150 49 -148 91 -276 94 -284 5 -17 76 76
178 231 282 434 458 913 533 1448 22 158 25 692 5 840 -65 471 -182 846 -385
1224 -537 1005 -1515 1674 -2647 1811 -129 16 -505 27 -620 19z"/>
<path d="M1054 5938 c-233 -237 -401 -456 -554 -723 -492 -856 -590 -1893
-269 -2838 127 -376 340 -758 590 -1061 39 -48 74 -84 79 -81 5 3 18 36 30 73
38 114 138 375 209 545 430 1020 1057 2017 1731 2753 l139 152 -197 194 c-488
480 -910 794 -1453 1081 -69 37 -130 67 -135 67 -5 0 -81 -73 -170 -162z"/>
<path d="M3568 3878 c-612 -683 -1215 -1800 -1532 -2838 -43 -140 -120 -436
-152 -578 -4 -21 6 -28 113 -78 910 -429 1907 -459 2818 -87 82 33 336 154
352 167 5 4 -84 366 -136 556 -238 857 -580 1657 -1023 2395 -100 165 -331
517 -352 534 -11 9 -30 -7 -88 -71z"/>
</g>
</svg>
